<svg width="218" height="92" viewBox="0 0 218 92" fill="none" xmlns="http://www.w3.org/2000/svg">
<g filter="url(#filter0_dd_96_1713)">
<rect x="20" width="178" height="52" rx="26" fill="#111827"/>
<g clip-path="url(#clip0_96_1713)">
<path d="M57.3332 25.3333C57.7014 25.3333 57.9998 25.6318 57.9998 26C57.9998 27.1046 58.8953 28 59.9998 28C61.1044 28 61.9998 27.1046 61.9998 26C61.9998 25.6318 62.2983 25.3333 62.6665 25.3333C63.0347 25.3333 63.3332 25.6318 63.3332 26C63.3332 27.841 61.8408 29.3333 59.9998 29.3333C58.1589 29.3333 56.6665 27.841 56.6665 26C56.6665 25.6318 56.965 25.3333 57.3332 25.3333Z" fill="#F8FAFC"/>
<path fill-rule="evenodd" clip-rule="evenodd" d="M63.3333 22.6667H64.7585C65.8078 22.6667 66.6787 23.4776 66.7534 24.5242L67.1276 29.7625C67.2654 31.6921 65.7372 33.3333 63.8027 33.3333H56.1973C54.2628 33.3333 52.7346 31.6921 52.8724 29.7625L53.2466 24.5242C53.3213 23.4776 54.1922 22.6667 55.2415 22.6667H56.6667V22C56.6667 20.159 58.1591 18.6667 60 18.6667C61.8409 18.6667 63.3333 20.159 63.3333 22V22.6667ZM58 22.6667H62V22C62 20.8954 61.1046 20 60 20C58.8954 20 58 20.8954 58 22V22.6667ZM55.2415 24C54.8917 24 54.6014 24.2703 54.5765 24.6192L54.2024 29.8575C54.1197 31.0152 55.0366 32 56.1973 32H63.8027C64.9634 32 65.8803 31.0152 65.7977 29.8575L65.4235 24.6192C65.3986 24.2703 65.1083 24 64.7585 24H55.2415Z" fill="#F8FAFC"/>
</g>
<path d="M83.904 29.728H79.248L78.448 32H76.544L80.528 20.864H82.64L86.624 32H84.704L83.904 29.728ZM83.392 28.24L81.584 23.072L79.76 28.24H83.392ZM87.7483 27.552C87.7483 26.6667 87.9296 25.8827 88.2923 25.2C88.6656 24.5173 89.1669 23.9893 89.7963 23.616C90.4363 23.232 91.1456 23.04 91.9243 23.04C92.5003 23.04 93.0656 23.168 93.6203 23.424C94.1856 23.6693 94.6336 24 94.9643 24.416V20.16H96.8043V32H94.9643V30.672C94.6656 31.0987 94.2496 31.4507 93.7163 31.728C93.1936 32.0053 92.5909 32.144 91.9083 32.144C91.1403 32.144 90.4363 31.952 89.7963 31.568C89.1669 31.1733 88.6656 30.6293 88.2923 29.936C87.9296 29.232 87.7483 28.4373 87.7483 27.552ZM94.9643 27.584C94.9643 26.976 94.8363 26.448 94.5803 26C94.3349 25.552 94.0096 25.2107 93.6043 24.976C93.1989 24.7413 92.7616 24.624 92.2923 24.624C91.8229 24.624 91.3856 24.7413 90.9803 24.976C90.5749 25.2 90.2443 25.536 89.9883 25.984C89.7429 26.4213 89.6203 26.944 89.6203 27.552C89.6203 28.16 89.7429 28.6933 89.9883 29.152C90.2443 29.6107 90.5749 29.9627 90.9803 30.208C91.3963 30.4427 91.8336 30.56 92.2923 30.56C92.7616 30.56 93.1989 30.4427 93.6043 30.208C94.0096 29.9733 94.3349 29.632 94.5803 29.184C94.8363 28.7253 94.9643 28.192 94.9643 27.584ZM98.592 27.552C98.592 26.6667 98.7733 25.8827 99.136 25.2C99.5093 24.5173 100.011 23.9893 100.64 23.616C101.28 23.232 101.989 23.04 102.768 23.04C103.344 23.04 103.909 23.168 104.464 23.424C105.029 23.6693 105.477 24 105.808 24.416V20.16H107.648V32H105.808V30.672C105.509 31.0987 105.093 31.4507 104.56 31.728C104.037 32.0053 103.435 32.144 102.752 32.144C101.984 32.144 101.28 31.952 100.64 31.568C100.011 31.1733 99.5093 30.6293 99.136 29.936C98.7733 29.232 98.592 28.4373 98.592 27.552ZM105.808 27.584C105.808 26.976 105.68 26.448 105.424 26C105.179 25.552 104.853 25.2107 104.448 24.976C104.043 24.7413 103.605 24.624 103.136 24.624C102.667 24.624 102.229 24.7413 101.824 24.976C101.419 25.2 101.088 25.536 100.832 25.984C100.587 26.4213 100.464 26.944 100.464 27.552C100.464 28.16 100.587 28.6933 100.832 29.152C101.088 29.6107 101.419 29.9627 101.824 30.208C102.24 30.4427 102.677 30.56 103.136 30.56C103.605 30.56 104.043 30.4427 104.448 30.208C104.853 29.9733 105.179 29.632 105.424 29.184C105.68 28.7253 105.808 28.192 105.808 27.584ZM116.328 24.672V29.552C116.328 29.8827 116.403 30.1227 116.552 30.272C116.712 30.4107 116.979 30.48 117.352 30.48H118.472V32H117.032C116.211 32 115.581 31.808 115.144 31.424C114.707 31.04 114.488 30.416 114.488 29.552V24.672H113.448V23.184H114.488V20.992H116.328V23.184H118.472V24.672H116.328ZM123.977 32.144C123.145 32.144 122.393 31.9573 121.721 31.584C121.049 31.2 120.521 30.6667 120.137 29.984C119.753 29.2907 119.561 28.4907 119.561 27.584C119.561 26.688 119.758 25.8933 120.153 25.2C120.548 24.5067 121.086 23.9733 121.769 23.6C122.452 23.2267 123.214 23.04 124.057 23.04C124.9 23.04 125.662 23.2267 126.345 23.6C127.028 23.9733 127.566 24.5067 127.961 25.2C128.356 25.8933 128.553 26.688 128.553 27.584C128.553 28.48 128.35 29.2747 127.945 29.968C127.54 30.6613 126.985 31.2 126.281 31.584C125.588 31.9573 124.82 32.144 123.977 32.144ZM123.977 30.56C124.446 30.56 124.884 30.448 125.289 30.224C125.705 30 126.041 29.664 126.297 29.216C126.553 28.768 126.681 28.224 126.681 27.584C126.681 26.944 126.558 26.4053 126.313 25.968C126.068 25.52 125.742 25.184 125.337 24.96C124.932 24.736 124.494 24.624 124.025 24.624C123.556 24.624 123.118 24.736 122.713 24.96C122.318 25.184 122.004 25.52 121.769 25.968C121.534 26.4053 121.417 26.944 121.417 27.584C121.417 28.5333 121.657 29.2693 122.137 29.792C122.628 30.304 123.241 30.56 123.977 30.56ZM133.905 27.584C133.905 26.6773 134.086 25.8827 134.449 25.2C134.822 24.5067 135.334 23.9733 135.985 23.6C136.635 23.2267 137.382 23.04 138.225 23.04C139.291 23.04 140.171 23.296 140.865 23.808C141.569 24.3093 142.043 25.0293 142.289 25.968H140.321C140.161 25.5307 139.905 25.1893 139.553 24.944C139.201 24.6987 138.758 24.576 138.225 24.576C137.478 24.576 136.881 24.8427 136.433 25.376C135.995 25.8987 135.777 26.6347 135.777 27.584C135.777 28.5333 135.995 29.2747 136.433 29.808C136.881 30.3413 137.478 30.608 138.225 30.608C139.281 30.608 139.979 30.144 140.321 29.216H142.289C142.033 30.112 141.553 30.8267 140.849 31.36C140.145 31.8827 139.27 32.144 138.225 32.144C137.382 32.144 136.635 31.9573 135.985 31.584C135.334 31.2 134.822 30.6667 134.449 29.984C134.086 29.2907 133.905 28.4907 133.905 27.584ZM143.498 27.552C143.498 26.6667 143.68 25.8827 144.042 25.2C144.416 24.5173 144.917 23.9893 145.546 23.616C146.186 23.232 146.89 23.04 147.658 23.04C148.352 23.04 148.954 23.1787 149.466 23.456C149.989 23.7227 150.405 24.0587 150.714 24.464V23.184H152.554V32H150.714V30.688C150.405 31.104 149.984 31.4507 149.45 31.728C148.917 32.0053 148.309 32.144 147.626 32.144C146.869 32.144 146.176 31.952 145.546 31.568C144.917 31.1733 144.416 30.6293 144.042 29.936C143.68 29.232 143.498 28.4373 143.498 27.552ZM150.714 27.584C150.714 26.976 150.586 26.448 150.33 26C150.085 25.552 149.76 25.2107 149.354 24.976C148.949 24.7413 148.512 24.624 148.042 24.624C147.573 24.624 147.136 24.7413 146.73 24.976C146.325 25.2 145.994 25.536 145.738 25.984C145.493 26.4213 145.37 26.944 145.37 27.552C145.37 28.16 145.493 28.6933 145.738 29.152C145.994 29.6107 146.325 29.9627 146.73 30.208C147.146 30.4427 147.584 30.56 148.042 30.56C148.512 30.56 148.949 30.4427 149.354 30.208C149.76 29.9733 150.085 29.632 150.33 29.184C150.586 28.7253 150.714 28.192 150.714 27.584ZM156.774 24.464C157.041 24.016 157.393 23.6693 157.83 23.424C158.278 23.168 158.806 23.04 159.414 23.04V24.928H158.95C158.235 24.928 157.691 25.1093 157.318 25.472C156.955 25.8347 156.774 26.464 156.774 27.36V32H154.95V23.184H156.774V24.464ZM163.219 24.672V29.552C163.219 29.8827 163.293 30.1227 163.443 30.272C163.603 30.4107 163.869 30.48 164.243 30.48H165.363V32H163.923C163.101 32 162.472 31.808 162.035 31.424C161.597 31.04 161.379 30.416 161.379 29.552V24.672H160.339V23.184H161.379V20.992H163.219V23.184H165.363V24.672H163.219Z" fill="white"/>
</g>
<defs>
<filter id="filter0_dd_96_1713" x="0" y="0" width="218" height="92" filterUnits="userSpaceOnUse" color-interpolation-filters="sRGB">
<feFlood flood-opacity="0" result="BackgroundImageFix"/>
<feColorMatrix in="SourceAlpha" type="matrix" values="0 0 0 0 0 0 0 0 0 0 0 0 0 0 0 0 0 0 127 0" result="hardAlpha"/>
<feMorphology radius="6" operator="erode" in="SourceAlpha" result="effect1_dropShadow_96_1713"/>
<feOffset dy="8"/>
<feGaussianBlur stdDeviation="5"/>
<feComposite in2="hardAlpha" operator="out"/>
<feColorMatrix type="matrix" values="0 0 0 0 0 0 0 0 0 0 0 0 0 0 0 0 0 0 0.1 0"/>
<feBlend mode="normal" in2="BackgroundImageFix" result="effect1_dropShadow_96_1713"/>
<feColorMatrix in="SourceAlpha" type="matrix" values="0 0 0 0 0 0 0 0 0 0 0 0 0 0 0 0 0 0 127 0" result="hardAlpha"/>
<feMorphology radius="5" operator="erode" in="SourceAlpha" result="effect2_dropShadow_96_1713"/>
<feOffset dy="20"/>
<feGaussianBlur stdDeviation="12.5"/>
<feComposite in2="hardAlpha" operator="out"/>
<feColorMatrix type="matrix" values="0 0 0 0 0 0 0 0 0 0 0 0 0 0 0 0 0 0 0.1 0"/>
<feBlend mode="normal" in2="effect1_dropShadow_96_1713" result="effect2_dropShadow_96_1713"/>
<feBlend mode="normal" in="SourceGraphic" in2="effect2_dropShadow_96_1713" result="shape"/>
</filter>
<clipPath id="clip0_96_1713">
<rect width="16" height="16" fill="white" transform="translate(52 18)"/>
</clipPath>
</defs>
</svg>
