<svg width="238" height="104" viewBox="0 0 238 104" fill="none" xmlns="http://www.w3.org/2000/svg">
<g filter="url(#filter0_dd_20_696)">
<rect x="20" width="198" height="64" rx="32" fill="#111827"/>
<path d="M59.024 28.352V31.616H62.864V33.104H59.024V36.512H63.344V38H57.2V26.864H63.344V28.352H59.024ZM69.3666 33.536L72.2146 38H70.1506L68.2466 35.008L66.4546 38H64.5506L67.3986 33.664L64.5506 29.184H66.6146L68.5186 32.176L70.3106 29.184H72.2146L69.3666 33.536ZM75.399 30.48C75.7083 30.0747 76.1297 29.7333 76.663 29.456C77.1963 29.1787 77.799 29.04 78.471 29.04C79.239 29.04 79.9377 29.232 80.567 29.616C81.207 29.9893 81.7083 30.5173 82.071 31.2C82.4337 31.8827 82.615 32.6667 82.615 33.552C82.615 34.4373 82.4337 35.232 82.071 35.936C81.7083 36.6293 81.207 37.1733 80.567 37.568C79.9377 37.952 79.239 38.144 78.471 38.144C77.799 38.144 77.2017 38.0107 76.679 37.744C76.1563 37.4667 75.7297 37.1253 75.399 36.72V42.192H73.575V29.184H75.399V30.48ZM80.759 33.552C80.759 32.944 80.631 32.4213 80.375 31.984C80.1297 31.536 79.799 31.2 79.383 30.976C78.9777 30.7413 78.5403 30.624 78.071 30.624C77.6123 30.624 77.175 30.7413 76.759 30.976C76.3537 31.2107 76.023 31.552 75.767 32C75.5217 32.448 75.399 32.976 75.399 33.584C75.399 34.192 75.5217 34.7253 75.767 35.184C76.023 35.632 76.3537 35.9733 76.759 36.208C77.175 36.4427 77.6123 36.56 78.071 36.56C78.5403 36.56 78.9777 36.4427 79.383 36.208C79.799 35.9627 80.1297 35.6107 80.375 35.152C80.631 34.6933 80.759 34.16 80.759 33.552ZM86.2428 26.16V38H84.4188V26.16H86.2428ZM92.4615 38.144C91.6295 38.144 90.8775 37.9573 90.2055 37.584C89.5335 37.2 89.0055 36.6667 88.6215 35.984C88.2375 35.2907 88.0455 34.4907 88.0455 33.584C88.0455 32.688 88.2428 31.8933 88.6375 31.2C89.0322 30.5067 89.5708 29.9733 90.2535 29.6C90.9362 29.2267 91.6988 29.04 92.5415 29.04C93.3842 29.04 94.1468 29.2267 94.8295 29.6C95.5122 29.9733 96.0508 30.5067 96.4455 31.2C96.8402 31.8933 97.0375 32.688 97.0375 33.584C97.0375 34.48 96.8348 35.2747 96.4295 35.968C96.0242 36.6613 95.4695 37.2 94.7655 37.584C94.0722 37.9573 93.3042 38.144 92.4615 38.144ZM92.4615 36.56C92.9308 36.56 93.3682 36.448 93.7735 36.224C94.1895 36 94.5255 35.664 94.7815 35.216C95.0375 34.768 95.1655 34.224 95.1655 33.584C95.1655 32.944 95.0428 32.4053 94.7975 31.968C94.5522 31.52 94.2268 31.184 93.8215 30.96C93.4162 30.736 92.9788 30.624 92.5095 30.624C92.0402 30.624 91.6028 30.736 91.1975 30.96C90.8028 31.184 90.4882 31.52 90.2535 31.968C90.0188 32.4053 89.9015 32.944 89.9015 33.584C89.9015 34.5333 90.1415 35.2693 90.6215 35.792C91.1122 36.304 91.7255 36.56 92.4615 36.56ZM100.665 30.464C100.931 30.016 101.283 29.6693 101.721 29.424C102.169 29.168 102.697 29.04 103.305 29.04V30.928H102.841C102.126 30.928 101.582 31.1093 101.209 31.472C100.846 31.8347 100.665 32.464 100.665 33.36V38H98.8406V29.184H100.665V30.464ZM113.061 33.376C113.061 33.7067 113.04 34.0053 112.997 34.272H106.261C106.315 34.976 106.576 35.5413 107.045 35.968C107.515 36.3947 108.091 36.608 108.773 36.608C109.755 36.608 110.448 36.1973 110.853 35.376H112.821C112.555 36.1867 112.069 36.8533 111.365 37.376C110.672 37.888 109.808 38.144 108.773 38.144C107.931 38.144 107.173 37.9573 106.501 37.584C105.84 37.2 105.317 36.6667 104.933 35.984C104.56 35.2907 104.373 34.4907 104.373 33.584C104.373 32.6773 104.555 31.8827 104.917 31.2C105.291 30.5067 105.808 29.9733 106.469 29.6C107.141 29.2267 107.909 29.04 108.773 29.04C109.605 29.04 110.347 29.2213 110.997 29.584C111.648 29.9467 112.155 30.4587 112.517 31.12C112.88 31.7707 113.061 32.5227 113.061 33.376ZM111.157 32.8C111.147 32.128 110.907 31.5893 110.437 31.184C109.968 30.7787 109.387 30.576 108.693 30.576C108.064 30.576 107.525 30.7787 107.077 31.184C106.629 31.5787 106.363 32.1173 106.277 32.8H111.157ZM123.461 29.04C124.154 29.04 124.773 29.184 125.317 29.472C125.871 29.76 126.303 30.1867 126.613 30.752C126.922 31.3173 127.077 32 127.077 32.8V38H125.269V33.072C125.269 32.2827 125.071 31.68 124.677 31.264C124.282 30.8373 123.743 30.624 123.061 30.624C122.378 30.624 121.834 30.8373 121.429 31.264C121.034 31.68 120.837 32.2827 120.837 33.072V38H119.013V29.184H120.837V30.192C121.135 29.8293 121.514 29.5467 121.973 29.344C122.442 29.1413 122.938 29.04 123.461 29.04ZM133.227 38.144C132.395 38.144 131.643 37.9573 130.971 37.584C130.299 37.2 129.771 36.6667 129.387 35.984C129.003 35.2907 128.811 34.4907 128.811 33.584C128.811 32.688 129.008 31.8933 129.403 31.2C129.798 30.5067 130.336 29.9733 131.019 29.6C131.702 29.2267 132.464 29.04 133.307 29.04C134.15 29.04 134.912 29.2267 135.595 29.6C136.278 29.9733 136.816 30.5067 137.211 31.2C137.606 31.8933 137.803 32.688 137.803 33.584C137.803 34.48 137.6 35.2747 137.195 35.968C136.79 36.6613 136.235 37.2 135.531 37.584C134.838 37.9573 134.07 38.144 133.227 38.144ZM133.227 36.56C133.696 36.56 134.134 36.448 134.539 36.224C134.955 36 135.291 35.664 135.547 35.216C135.803 34.768 135.931 34.224 135.931 33.584C135.931 32.944 135.808 32.4053 135.563 31.968C135.318 31.52 134.992 31.184 134.587 30.96C134.182 30.736 133.744 30.624 133.275 30.624C132.806 30.624 132.368 30.736 131.963 30.96C131.568 31.184 131.254 31.52 131.019 31.968C130.784 32.4053 130.667 32.944 130.667 33.584C130.667 34.5333 130.907 35.2693 131.387 35.792C131.878 36.304 132.491 36.56 133.227 36.56ZM151.446 29.184L148.71 38H146.79L145.014 31.488L143.238 38H141.318L138.566 29.184H140.422L142.262 36.272L144.134 29.184H146.038L147.83 36.24L149.654 29.184H151.446Z" fill="white"/>
<path d="M171.583 39.5C175.956 39.5 179.5 35.9556 179.5 31.5833C179.5 27.2111 175.956 23.6667 171.583 23.6667C167.211 23.6667 163.667 27.2111 163.667 31.5833C163.667 35.9556 167.211 39.5 171.583 39.5Z" stroke="#F8FAFC" stroke-width="1.25" stroke-linecap="round" stroke-linejoin="round"/>
<path d="M180.333 40.3334L178.667 38.6667" stroke="#F8FAFC" stroke-width="1.25" stroke-linecap="round" stroke-linejoin="round"/>
</g>
<defs>
<filter id="filter0_dd_20_696" x="0" y="0" width="238" height="104" filterUnits="userSpaceOnUse" color-interpolation-filters="sRGB">
<feFlood flood-opacity="0" result="BackgroundImageFix"/>
<feColorMatrix in="SourceAlpha" type="matrix" values="0 0 0 0 0 0 0 0 0 0 0 0 0 0 0 0 0 0 127 0" result="hardAlpha"/>
<feMorphology radius="6" operator="erode" in="SourceAlpha" result="effect1_dropShadow_20_696"/>
<feOffset dy="8"/>
<feGaussianBlur stdDeviation="5"/>
<feComposite in2="hardAlpha" operator="out"/>
<feColorMatrix type="matrix" values="0 0 0 0 0 0 0 0 0 0 0 0 0 0 0 0 0 0 0.1 0"/>
<feBlend mode="normal" in2="BackgroundImageFix" result="effect1_dropShadow_20_696"/>
<feColorMatrix in="SourceAlpha" type="matrix" values="0 0 0 0 0 0 0 0 0 0 0 0 0 0 0 0 0 0 127 0" result="hardAlpha"/>
<feMorphology radius="5" operator="erode" in="SourceAlpha" result="effect2_dropShadow_20_696"/>
<feOffset dy="20"/>
<feGaussianBlur stdDeviation="12.5"/>
<feComposite in2="hardAlpha" operator="out"/>
<feColorMatrix type="matrix" values="0 0 0 0 0 0 0 0 0 0 0 0 0 0 0 0 0 0 0.1 0"/>
<feBlend mode="normal" in2="effect1_dropShadow_20_696" result="effect2_dropShadow_20_696"/>
<feBlend mode="normal" in="SourceGraphic" in2="effect2_dropShadow_20_696" result="shape"/>
</filter>
</defs>
</svg>
