<svg width="56" height="32" viewBox="0 0 56 32" fill="none" xmlns="http://www.w3.org/2000/svg">
<mask id="mask0_182_6144" style="mask-type:luminance" maskUnits="userSpaceOnUse" x="0" y="0" width="56" height="32">
<path d="M56 0.359619H0V31.3899H56V0.359619Z" fill="white"/>
</mask>
<g mask="url(#mask0_182_6144)">
<mask id="mask1_182_6144" style="mask-type:luminance" maskUnits="userSpaceOnUse" x="4" y="-7" width="48" height="47">
<path d="M51.7999 -6.90161H4.19995V39.256H51.7999V-6.90161Z" fill="white"/>
</mask>
<g mask="url(#mask1_182_6144)">
<path d="M12.7314 11.9649C12.5756 11.6617 12.3292 11.4118 12.0232 11.2241C11.7041 11.0345 11.3273 10.9018 10.8967 10.823C10.4586 10.7462 9.95243 10.7113 9.36604 10.7058L6.6588 10.7077C6.3774 10.7113 6.10168 10.9238 6.03558 11.1875L4.21407 18.8808C4.14797 19.1409 4.32455 19.3588 4.60594 19.3588H5.90243C6.18383 19.3588 6.46239 19.1473 6.52471 18.8808L6.96947 17.0129C7.02895 16.7528 7.30657 16.5358 7.5908 16.5358H7.9619C9.54734 16.534 10.7749 16.22 11.6569 15.5909C12.5435 14.9609 12.9807 14.1286 12.9807 13.0976C12.9798 12.6461 12.9033 12.267 12.7314 11.9649ZM9.93544 14.4783C9.54356 14.7567 8.99871 14.8959 8.29617 14.8959H7.9789C7.69656 14.8959 7.52376 14.6798 7.58513 14.4161L7.97512 12.7825C8.02989 12.5207 8.31411 12.3037 8.59268 12.3055L9.0176 12.3027C9.51334 12.3027 9.892 12.3861 10.1451 12.5473C10.3953 12.7066 10.5209 12.9602 10.519 13.2963C10.5266 13.8072 10.3254 14.2 9.93544 14.4783Z" fill="white"/>
<path d="M49.6905 11.3082L49.6093 11.3321L49.5007 11.3467L49.3675 11.3265L49.2996 11.2624L49.2684 11.1617L49.2665 11.0106V10.4512H49.6999V10.2781H49.2665V9.9292H49.0522V10.2781H48.9067V10.4512H49.0522V11.1022L49.1522 11.4245L49.4469 11.5271L49.5706 11.517L49.7018 11.4923V11.3082H49.6905Z" fill="white"/>
<path d="M51.7008 10.367L51.3911 10.2434L51.1626 10.2883L50.9303 10.4403L50.7953 10.2947L50.5762 10.2444L50.3656 10.2892L50.1664 10.4138V10.2782H49.9558V11.5006H50.1654V10.5877L50.342 10.4815L50.5177 10.4394L50.6612 10.4641L50.732 10.5346L50.7632 10.6518L50.7736 10.8029V11.5016H50.9841V10.7195L50.9803 10.6546L50.9766 10.595L51.156 10.4843L51.3335 10.4412L51.4723 10.466L51.5479 10.5365L51.5743 10.6546L51.5885 10.8038V11.5025H51.8V10.7086L51.7008 10.367Z" fill="white"/>
<path d="M18.9835 13.0644C18.4944 12.7971 17.722 12.6633 16.6663 12.6633C16.1441 12.6633 15.6238 12.7027 15.0978 12.7814C14.7097 12.8391 14.672 12.8502 14.4331 12.9005C13.9402 13.0049 13.8627 13.4819 13.8627 13.4819L13.7041 14.1147C13.6144 14.5185 13.8542 14.5029 13.9543 14.469C14.1696 14.4067 14.2895 14.3427 14.7296 14.2474C15.1498 14.1549 15.5926 14.0854 15.9439 14.0899C16.4623 14.0899 16.8589 14.1431 17.1233 14.2511C17.3839 14.361 17.5142 14.5496 17.5142 14.8225L17.4916 15.0001L17.3046 15.1118C16.569 15.1567 16.0374 15.2227 15.3924 15.3133C14.7617 15.3985 14.2083 15.5477 13.7485 15.7519C13.2546 15.9624 12.8882 16.2454 12.6323 16.6052C12.3849 16.9669 12.2612 17.4055 12.2612 17.9202C12.2612 18.4045 12.4406 18.8047 12.7891 19.1141C13.1394 19.4181 13.6021 19.5665 14.1554 19.5665C14.5058 19.5647 14.7768 19.5381 14.9694 19.4933L15.5974 19.2835L16.129 18.9979L16.6181 18.6848L16.6247 18.6939L16.5756 18.8954L16.5728 18.9036V18.9055C16.5199 19.1508 16.6729 19.3523 16.9193 19.3761L16.9241 19.3816H16.9467H17.941H18.128L18.145 19.3742C18.4037 19.3449 18.6464 19.1435 18.7031 18.9036L19.6483 14.936L19.6974 14.6128L19.7201 14.3097C19.7238 13.7475 19.4736 13.3309 18.9835 13.0644ZM16.8929 17.5255L16.6908 17.7837L16.1809 18.0392C15.9411 18.1335 15.7135 18.1811 15.5029 18.1811C15.1838 18.1811 14.9335 18.1363 14.7645 18.0447L14.5143 17.5731C14.5143 17.3177 14.5747 17.1153 14.7041 16.9597L15.2536 16.597C15.4888 16.5201 15.7758 16.4551 16.1082 16.4102C16.4047 16.3746 16.9902 16.3095 17.0667 16.3076L17.1564 16.4606C17.1384 16.5475 16.9722 17.2215 16.8929 17.5255Z" fill="white"/>
<path d="M42.5319 13.0702C42.0399 12.8028 41.2684 12.6682 40.2156 12.6682C39.6934 12.6682 39.1721 12.7076 38.6481 12.7891C38.259 12.844 38.2203 12.8559 37.9805 12.9054C37.4885 13.0089 37.412 13.4877 37.412 13.4877L37.2534 14.1196C37.1646 14.5233 37.3988 14.505 37.5083 14.4739C37.7246 14.4116 37.8407 14.3502 38.277 14.2514C38.6953 14.1598 39.1419 14.0921 39.4941 14.0939C40.0107 14.0939 40.4073 14.148 40.6707 14.256C40.9332 14.3659 41.0616 14.5563 41.0616 14.8265L41.0418 15.0031L40.8567 15.1176C40.1136 15.1606 39.581 15.2266 38.9427 15.3172C38.3138 15.4024 37.7586 15.5507 37.2977 15.7558C36.8058 15.9673 36.4347 16.2503 36.1816 16.6111C35.9314 16.9727 35.8096 17.4104 35.8096 17.9205C35.8096 18.4085 35.9871 18.8086 36.3403 19.1163C36.6925 19.4194 37.1504 19.5714 37.7038 19.5714C38.0522 19.5677 38.3232 19.5458 38.5168 19.4972L39.1429 19.2903L39.6792 19.0046L40.1646 18.6878L40.1731 18.6979L40.1287 18.9011L40.124 18.9048L40.1259 18.9084C40.0673 19.1538 40.2212 19.3571 40.4705 19.3791L40.4724 19.3837H40.4951C40.6584 19.3837 41.2231 19.3837 41.4922 19.3837H41.6754L41.6952 19.3773C41.9511 19.3471 42.1929 19.1456 42.2467 18.903L43.1948 14.9409L43.2448 14.6158L43.2722 14.3118C43.2731 13.7515 43.0257 13.3366 42.5319 13.0702ZM40.446 17.5313L40.2354 17.7923L39.7302 18.0459C39.4904 18.1393 39.2618 18.1878 39.055 18.1878C38.7255 18.1878 38.4819 18.1421 38.3176 18.0505L38.0645 17.5807C38.0645 17.3243 38.1259 17.1239 38.2496 16.9654C38.3752 16.8162 38.5669 16.6934 38.8048 16.6037C39.0371 16.5268 39.3242 16.4646 39.6584 16.4178C39.9531 16.3822 40.5366 16.3153 40.6122 16.3144L40.7038 16.4673C40.6905 16.5543 40.5234 17.2255 40.446 17.5313Z" fill="white"/>
<path d="M36.2761 11.9932C36.1137 11.6882 35.87 11.4419 35.5622 11.2496C35.2468 11.0592 34.8729 10.9254 34.4357 10.8485C34.006 10.7744 33.4933 10.7341 32.9107 10.7332L30.1997 10.735C29.9173 10.7397 29.6463 10.952 29.5812 11.213L27.7578 18.91C27.6917 19.171 27.873 19.3871 28.1487 19.3871L29.4471 19.3853C29.7228 19.3871 30.0052 19.1728 30.0703 18.9092L30.5094 17.0403C30.5736 16.7802 30.8522 16.5614 31.1326 16.5632H31.5037C33.091 16.5632 34.3214 16.2464 35.2072 15.6192C36.0825 14.9846 36.5254 14.1541 36.5254 13.1222C36.5207 12.6725 36.4404 12.2925 36.2761 11.9932ZM33.4801 14.5103C33.0892 14.7832 32.5434 14.9223 31.8446 14.9223H31.5217C31.2431 14.9251 31.0627 14.7053 31.1251 14.4435L31.5179 12.8127C31.5755 12.5517 31.8569 12.3329 32.1373 12.3356L32.5575 12.3329C33.0561 12.3356 33.43 12.4153 33.685 12.5765C33.939 12.7376 34.0589 12.9903 34.0618 13.3254C34.0646 13.8364 33.8691 14.2301 33.4801 14.5103Z" fill="white"/>
<path d="M47.393 11.2742C47.4525 11.0115 47.2825 10.7981 47.004 10.8018H45.8425C45.6045 10.8018 45.3902 10.9731 45.2854 11.1837L45.2212 11.2807L45.1626 11.5298L43.5394 18.6848L43.4865 18.9045L43.4884 18.91C43.4346 19.1453 43.5838 19.3229 43.8142 19.3569L43.834 19.3833H45.0399C45.2759 19.3833 45.4978 19.2094 45.5989 18.9952L45.6612 18.9035L47.3968 11.2752L47.393 11.2742Z" fill="white"/>
<path d="M27.7937 12.7596C27.4868 12.7632 26.2394 12.7596 26.2394 12.7596C25.9599 12.7596 25.6011 12.9784 25.4235 13.2394C25.4235 13.2394 23.5671 16.3288 23.3867 16.6392L23.1714 16.6365L22.5935 13.2605C22.5293 12.9949 22.2432 12.7679 21.8872 12.7679L20.7258 12.7696C20.4463 12.7696 20.2744 12.9858 20.3377 13.2494C20.3377 13.2494 21.2196 18.1162 21.3962 19.2617C21.4783 19.8935 21.3858 20.0062 21.3858 20.0062L20.2376 21.9455C20.0676 22.2092 20.1592 22.4244 20.4378 22.4244L21.7805 22.4226C22.06 22.4226 22.4273 22.2092 22.5935 21.9446L27.7587 13.4728C27.7587 13.4728 28.2554 12.7495 27.7937 12.7596Z" fill="white"/>
</g>
</g>
</svg>
