<svg width="14" height="10" viewBox="0 0 14 10" fill="none" xmlns="http://www.w3.org/2000/svg">
<path d="M13.0141 4.33205L9.24206 0.412054C9.14616 0.305387 9.02362 0.252054 8.87445 0.252054C8.72527 0.252054 8.60273 0.302721 8.50684 0.404055C8.41094 0.505387 8.36299 0.628055 8.36299 0.772055C8.36299 0.916055 8.41094 1.04139 8.50684 1.14805L11.4318 4.18805H1.18654C1.04802 4.18805 0.928146 4.23872 0.82692 4.34005C0.725693 4.44139 0.675079 4.56405 0.675079 4.70805C0.675079 4.85205 0.725693 4.97739 0.82692 5.08405C0.928146 5.19072 1.04802 5.24405 1.18654 5.24405H11.4318L8.50684 8.26805C8.41094 8.37472 8.36299 8.50005 8.36299 8.64405C8.36299 8.78805 8.4136 8.91339 8.51483 9.02005C8.61605 9.12672 8.73593 9.18005 8.87445 9.18005C9.01297 9.18005 9.13551 9.12672 9.24206 9.02005L13.0141 5.08405C13.1206 4.97739 13.1739 4.85739 13.1739 4.72405C13.1739 4.59072 13.1206 4.46005 13.0141 4.33205Z" fill="#4B5563"/>
</svg>
